<svg width="18" height="11" viewBox="0 0 18 11" fill="none" xmlns="http://www.w3.org/2000/svg">
<g clip-path="url(#clip0_1050_722)">
<path d="M10.441 0.511398L17.6631 7.73347C17.7711 7.8414 17.8568 7.96957 17.9153 8.11064C17.9738 8.25171 18.0039 8.40291 18.0039 8.55562C18.0039 8.70833 17.9738 8.85954 17.9153 9.00061C17.8568 9.14168 17.7711 9.26985 17.6631 9.37777C17.5552 9.48581 17.427 9.57152 17.2859 9.63C17.1449 9.68848 16.9937 9.71858 16.8409 9.71858C16.6882 9.71858 16.537 9.68848 16.396 9.63C16.2549 9.57152 16.1267 9.48581 16.0188 9.37777L9.20924 2.56821L1.98717 9.79029C1.87924 9.89833 1.75109 9.98404 1.61002 10.0425C1.46895 10.101 1.31771 10.1311 1.165 10.1311C1.01229 10.1311 0.861084 10.101 0.720015 10.0425C0.578945 9.98404 0.450792 9.89833 0.342871 9.79029C0.234827 9.68237 0.149139 9.55421 0.0906601 9.41314C0.0321808 9.27207 0.00207329 9.12085 0.00207329 8.96814C0.00207329 8.81543 0.0321808 8.66423 0.0906601 8.52316C0.149139 8.38209 0.234827 8.25393 0.342871 8.14601L7.97748 0.511398C8.30431 0.18498 8.74733 0.00164127 9.20924 0.00164127C9.67115 0.00164127 10.1142 0.18498 10.441 0.511398Z" fill="#00354E"/>
</g>
<defs>
<clipPath id="clip0_1050_722">
<rect width="18" height="10.1272" fill="white" transform="matrix(-1 0 0 -1 18 10.1272)"/>
</clipPath>
</defs>
</svg>
